<svg width="22" height="22" viewBox="0 0 22 22" fill="none" xmlns="http://www.w3.org/2000/svg">
<path fill-rule="evenodd" clip-rule="evenodd" d="M15.5 0.5C16.2932 0.5 16.9804 0.814241 17.5317 1.36987L20.6326 4.47077C21.1886 5.02679 21.5 5.70911 21.5 6.5C21.5 7.28578 21.191 8.10092 20.6326 8.65939L9.33531 19.9513C8.54991 20.8573 7.43657 21.4139 6.1346 21.5023H2H0.5V20.0023L0.504871 15.747C0.600471 14.5637 1.1506 13.4634 1.97294 12.7399L13.3414 1.37151C13.8993 0.810771 14.7131 0.5 15.5 0.5ZM4.02735 14.9241C3.71902 15.1968 3.52828 15.5783 3.5 15.8678V18.5037L6.02867 18.5061C6.43053 18.4776 6.8046 18.2906 7.14124 17.9081L13.714 11.3353L10.6663 8.28758L4.02735 14.9241ZM12.788 6.16664L15.8353 9.21399L18.4842 6.56508L15.4374 3.51819L12.788 6.16664Z" fill="#9A9AB0"/>
</svg>
